<?xml version="1.0" standalone="no"?>
<!DOCTYPE svg PUBLIC "-//W3C//DTD SVG 20010904//EN"
 "http://www.w3.org/TR/2001/REC-SVG-20010904/DTD/svg10.dtd">
<svg version="1.0" xmlns="http://www.w3.org/2000/svg"
 width="1958.000000pt" height="510.000000pt" viewBox="0 0 1958.000000 510.000000"
 preserveAspectRatio="xMidYMid meet">

<g transform="translate(0.000000,510.000000) scale(0.100000,-0.100000)"
fill="#000000" stroke="none">
<path d="M980 4801 c-212 -57 -384 -207 -468 -408 -44 -105 -52 -176 -52 -481
0 -260 2 -295 21 -362 35 -129 75 -196 174 -296 76 -76 104 -97 185 -136 52
-26 123 -54 158 -64 l62 -17 0 -181 c0 -99 5 -198 10 -218 24 -86 129 -117
203 -61 43 34 192 163 379 330 l138 123 150 0 c82 0 150 -3 150 -7 0 -5 -35
-24 -77 -43 -235 -105 -483 -372 -587 -633 -56 -141 -70 -226 -70 -432 0 -162
3 -203 22 -278 67 -269 224 -510 435 -668 201 -151 397 -224 632 -236 266 -13
484 49 720 205 83 55 223 192 287 282 52 73 140 243 160 308 7 23 16 42 19 42
4 0 26 -20 51 -44 48 -49 81 -62 133 -52 59 11 98 55 179 201 6 11 50 85 98
165 350 587 365 622 355 850 -5 140 -29 227 -89 327 -37 62 -137 168 -168 178
-28 9 -26 17 19 76 48 63 95 159 118 237 25 87 31 615 8 738 -52 277 -245 486
-511 554 -75 19 -116 20 -1428 19 -1260 0 -1355 -1 -1416 -18z m2842 -119 c85
-29 204 -108 263 -175 56 -63 108 -168 131 -262 23 -93 27 -599 5 -685 -19
-77 -72 -186 -120 -247 l-41 -51 -67 26 c-54 20 -93 26 -185 30 -106 4 -126 2
-200 -21 -85 -27 -183 -79 -229 -123 l-25 -24 -803 0 -803 0 -82 -73 c-44 -40
-97 -86 -117 -103 -20 -16 -102 -87 -183 -159 -157 -138 -174 -151 -184 -140
-5 5 -13 291 -12 451 0 7 -30 17 -67 24 -262 45 -459 212 -517 436 -22 87 -23
569 -1 663 27 113 70 188 159 276 106 104 214 161 341 178 17 2 624 4 1350 3
l1320 -1 67 -23z m132 -1497 c157 -55 282 -177 347 -337 17 -41 23 -81 27
-174 7 -190 9 -185 -260 -639 -247 -416 -262 -440 -278 -440 -18 0 -51 51
-209 320 -65 110 -156 266 -204 346 -47 80 -95 174 -107 208 -45 136 -34 297
32 431 41 86 169 215 251 255 126 61 281 72 401 30z m-724 -161 c0 -18 -57
-123 -67 -123 -6 -1 -44 19 -84 44 -40 24 -87 50 -106 56 -64 21 -33 29 112
29 80 0 145 -3 145 -6z m-480 -65 c85 -20 244 -90 330 -146 l45 -29 0 -115 c1
-196 28 -262 269 -662 86 -142 156 -264 156 -272 0 -31 -55 -197 -90 -272 -55
-118 -103 -185 -205 -292 -212 -220 -459 -327 -755 -325 -111 1 -152 6 -232
27 -300 79 -532 264 -686 547 -109 200 -143 441 -101 705 32 196 151 409 315
566 255 242 620 345 954 268z"/>
<path d="M2530 3955 l0 -425 85 0 85 0 0 425 0 425 -85 0 -85 0 0 -425z"/>
<path d="M3575 4361 c-44 -11 -76 -29 -113 -65 -46 -42 -62 -77 -62 -131 l0
-45 80 0 c73 0 80 2 80 20 0 61 51 96 114 79 58 -16 82 -70 55 -122 -7 -12
-43 -55 -81 -95 -77 -81 -88 -103 -88 -169 l0 -46 38 7 c20 3 52 6 70 6 28 0
32 3 32 26 0 19 20 46 79 103 43 42 89 96 101 121 59 113 6 254 -113 299 -38
15 -155 22 -192 12z"/>
<path d="M1010 3945 l0 -415 80 0 80 0 0 169 c0 94 3 172 8 174 4 3 85 2 180
-1 l172 -5 0 -168 0 -169 85 0 85 0 0 415 0 415 -85 0 -85 0 0 -170 0 -170
-180 0 -180 0 0 170 0 170 -80 0 -80 0 0 -415z"/>
<path d="M2005 4113 c-69 -25 -107 -54 -144 -110 -68 -102 -76 -211 -25 -319
88 -186 350 -233 497 -89 70 70 92 123 92 225 -1 64 -6 96 -21 131 -30 63 -79
116 -138 146 -68 35 -187 42 -261 16z m187 -149 c35 -18 57 -52 69 -104 30
-131 -90 -239 -205 -185 -53 25 -79 68 -84 136 -6 86 34 154 103 172 28 7 84
-2 117 -19z"/>
<path d="M2975 4120 c-22 -5 -59 -16 -82 -25 l-43 -17 0 -63 0 -63 75 24 c86
27 150 30 199 10 40 -16 42 -20 51 -68 l7 -37 -94 6 c-139 8 -218 -21 -262
-97 -27 -46 -27 -133 1 -186 52 -100 244 -128 317 -45 25 28 36 27 36 -4 0
-24 2 -25 76 -25 l76 0 -4 223 c-3 206 -5 225 -26 264 -51 96 -171 134 -327
103z m195 -355 c18 -22 1 -73 -32 -98 -18 -14 -48 -22 -87 -25 -50 -4 -62 -1
-80 17 -34 34 -23 93 22 111 39 15 163 12 177 -5z"/>
<path d="M3567 3700 c-104 -82 4 -237 122 -176 45 24 66 99 41 147 -26 47
-118 64 -163 29z"/>
<path d="M3730 2901 c-118 -39 -200 -147 -200 -266 0 -192 201 -323 368 -239
198 99 201 396 4 490 -40 19 -135 27 -172 15z m120 -126 c95 -49 93 -207 -2
-265 -42 -25 -61 -25 -114 0 -55 27 -78 73 -72 146 5 57 22 84 73 115 36 23
76 24 115 4z"/>
<path d="M2045 1803 c7 -105 38 -319 48 -329 3 -3 48 -1 101 5 52 6 136 11
186 11 l90 0 0 210 0 210 -216 0 -216 0 7 -107z"/>
<path d="M2552 1703 l3 -208 115 -6 c63 -3 147 -9 186 -13 l70 -8 12 64 c21
110 30 190 34 283 l3 90 -213 3 -212 2 2 -207z"/>
<path d="M1657 1893 l-99 -4 7 -72 c13 -133 67 -313 122 -400 19 -30 27 -36
41 -29 28 15 216 62 247 62 26 0 27 2 21 33 -18 85 -36 228 -36 282 0 33 -3
77 -6 98 l-7 37 -96 -2 c-53 -1 -140 -4 -194 -5z"/>
<path d="M3056 1794 c-4 -60 -14 -152 -23 -204 -25 -144 -33 -129 87 -156 58
-13 124 -30 148 -38 l42 -15 26 41 c59 93 102 235 111 369 7 104 26 95 -213
105 l-171 7 -7 -109z"/>
<path d="M2178 1393 c-43 -3 -58 -8 -58 -19 0 -8 14 -50 30 -93 58 -151 171
-295 240 -307 19 -3 43 -8 53 -11 16 -4 17 11 17 216 l0 221 -112 -2 c-62 -1
-139 -3 -170 -5z"/>
<path d="M2550 1180 c0 -121 4 -220 8 -220 5 0 31 7 59 15 80 24 177 144 242
300 46 111 46 111 -51 118 -46 4 -122 7 -170 7 l-88 0 0 -220z"/>
<path d="M1905 1350 c-77 -20 -125 -39 -125 -50 0 -12 122 -128 185 -175 56
-43 171 -104 223 -120 21 -6 20 -2 -16 52 -49 72 -92 157 -123 246 -28 77 -29
78 -144 47z"/>
<path d="M2966 1313 c-26 -82 -87 -200 -135 -261 -23 -29 -37 -52 -32 -52 22
0 167 73 232 116 38 25 102 77 141 116 60 57 70 71 57 79 -19 10 -207 59 -230
59 -10 0 -21 -20 -33 -57z"/>
<path d="M6710 3215 l0 -775 150 0 150 0 0 775 0 775 -150 0 -150 0 0 -775z"/>
<path d="M12445 3964 c-291 -47 -512 -246 -592 -534 -25 -94 -25 -387 1 -480
41 -147 107 -260 207 -356 120 -114 304 -182 499 -184 l55 -1 35 -55 c83 -132
247 -241 399 -266 l74 -13 26 34 c14 19 49 68 78 110 42 61 50 77 38 84 -9 4
-19 6 -23 3 -15 -9 -154 14 -197 33 -49 22 -148 108 -139 122 3 5 33 23 67 41
75 37 206 166 256 251 82 140 117 304 108 501 -11 232 -83 397 -232 534 -133
122 -272 172 -490 177 -77 2 -153 1 -170 -1z m322 -303 c113 -53 192 -154 227
-288 21 -81 21 -265 0 -346 -35 -138 -125 -250 -241 -305 -52 -24 -69 -27
-173 -27 -107 0 -119 2 -169 29 -193 101 -286 340 -236 603 37 193 165 333
332 363 84 15 190 3 260 -29z"/>
<path d="M5590 3195 l0 -755 155 0 155 0 2 303 3 302 263 3 262 2 0 125 0 125
-265 0 -265 0 0 195 0 195 300 0 300 0 0 130 0 130 -455 0 -455 0 0 -755z"/>
<path d="M11205 3825 c-60 -13 -116 -24 -122 -24 -10 -1 -13 -34 -13 -130 0
-77 -4 -132 -10 -136 -6 -4 -43 -12 -83 -19 l-72 -12 0 -109 0 -110 82 -3 82
-3 3 -317 3 -317 32 -61 c62 -120 160 -166 343 -166 103 0 230 27 245 52 9 14
-46 220 -59 220 -6 0 -33 -7 -60 -15 -67 -20 -115 -19 -154 5 -58 35 -62 60
-62 350 l0 260 155 0 155 0 0 109 c0 78 -4 110 -12 113 -7 3 -71 4 -143 3 -71
-1 -136 0 -142 3 -10 3 -13 46 -13 168 0 192 18 175 -155 139z"/>
<path d="M17190 3830 c-47 -11 -102 -22 -122 -26 l-38 -7 0 -129 c0 -147 5
-140 -103 -153 l-57 -7 -1 -99 c-1 -55 -2 -105 -3 -111 -1 -9 18 -13 59 -14
33 -1 70 -2 82 -3 l22 -1 3 -317 c3 -307 4 -320 26 -368 13 -27 37 -64 54 -82
68 -71 223 -111 360 -93 84 11 194 43 192 56 -1 5 -14 57 -29 116 l-28 106
-55 -19 c-101 -35 -181 -16 -215 51 -15 31 -17 64 -15 295 l3 260 153 3 152 3
0 109 c0 81 -3 110 -12 111 -24 2 -92 5 -195 7 l-103 2 0 165 c0 192 14 176
-130 145z"/>
<path d="M16263 3541 c-139 -22 -225 -74 -280 -169 -23 -39 -28 -60 -31 -139
-5 -110 11 -164 66 -225 48 -53 109 -82 249 -119 156 -40 192 -64 193 -124 0
-75 -59 -109 -190 -108 -95 0 -163 15 -235 49 -20 9 -38 15 -40 13 -2 -3 -10
-54 -18 -114 -17 -128 -18 -126 66 -155 183 -64 427 -46 560 43 117 79 167
234 122 384 -39 132 -107 176 -398 258 -73 20 -97 43 -97 93 0 47 7 58 51 76
88 37 211 23 345 -38 30 -14 55 -22 57 -18 3 7 3 24 -1 159 -2 84 -2 84 -117
113 -89 23 -229 32 -302 21z"/>
<path d="M8849 3525 c-80 -21 -140 -58 -205 -123 -125 -124 -179 -302 -154
-502 31 -249 156 -398 383 -460 153 -42 381 -28 529 34 l35 15 -9 63 c-5 35
-12 88 -16 118 -9 63 -5 62 -112 24 -55 -20 -100 -29 -171 -32 -115 -5 -187
12 -250 61 -42 32 -92 108 -104 160 l-7 27 376 0 376 0 0 93 c-1 176 -41 294
-137 397 -60 66 -140 110 -231 129 -70 15 -245 13 -303 -4z m239 -210 c89 -27
146 -96 154 -190 l3 -30 -235 0 c-233 0 -235 0 -238 22 -2 12 8 43 22 71 57
113 172 163 294 127z"/>
<path d="M10197 3525 c-60 -16 -117 -53 -154 -100 -15 -19 -31 -35 -35 -35 -4
0 -8 28 -10 63 l-3 62 -137 3 -138 3 0 -541 0 -540 144 0 143 0 5 338 c6 361
9 384 61 441 36 39 115 71 175 71 97 0 158 -48 181 -142 7 -30 11 -165 11
-377 l0 -331 145 0 145 0 0 388 c0 317 -3 399 -15 447 -35 132 -118 216 -247
251 -65 17 -207 17 -271 -1z"/>
<path d="M15100 3522 c-82 -27 -118 -49 -178 -106 -66 -61 -116 -137 -144
-214 -26 -74 -35 -259 -18 -361 25 -149 125 -293 246 -354 170 -86 397 -97
598 -29 l81 27 -1 40 c0 44 -22 196 -28 203 -3 2 -26 -6 -52 -17 -76 -34 -156
-51 -239 -51 -148 0 -248 50 -297 150 -51 105 -86 94 337 100 l370 5 -1 115
c-1 142 -25 231 -87 322 -49 71 -132 133 -217 162 -82 28 -296 32 -370 8z
m248 -207 c88 -27 150 -99 155 -183 l2 -37 -229 -3 c-126 -1 -234 2 -238 6 -5
5 0 33 12 65 32 84 97 138 195 160 36 8 51 7 103 -8z"/>
<path d="M7282 3511 c-11 -7 -13 -80 -10 -397 4 -372 5 -392 27 -454 56 -163
170 -242 351 -242 130 -1 267 55 314 126 26 41 36 31 36 -39 l0 -66 138 3 137
3 -3 530 c-2 291 -5 531 -6 532 -1 2 -64 4 -140 5 l-137 3 -3 -345 c-2 -297
-4 -350 -19 -381 -24 -53 -70 -95 -124 -113 -134 -46 -240 19 -263 160 -6 32
-10 200 -10 372 l0 312 -137 0 c-76 0 -144 -4 -151 -9z"/>
<path d="M13567 3514 c-12 -12 -8 -709 4 -787 29 -186 132 -290 309 -312 124
-15 282 35 349 112 21 23 41 43 45 43 3 0 6 -29 6 -65 l0 -65 145 0 145 0 0
534 c0 518 -1 535 -19 541 -11 3 -78 5 -149 3 l-130 -3 -4 -350 c-3 -343 -3
-351 -26 -393 -41 -76 -147 -125 -237 -108 -44 9 -99 56 -128 110 -21 40 -22
53 -25 393 l-3 351 -138 1 c-75 1 -140 -2 -144 -5z"/>
<path d="M9557 1783 c-4 -3 -7 -156 -7 -340 l0 -333 40 0 40 0 0 143 c0 115 3
148 18 176 25 51 65 76 119 76 38 0 49 -5 74 -33 l29 -32 0 -165 0 -165 41 0
42 0 -5 179 c-5 153 -8 185 -25 213 -24 42 -75 68 -136 68 -51 0 -124 -30
-134 -55 -3 -8 -10 -15 -17 -15 -8 0 -10 41 -8 145 l3 145 -34 0 c-18 0 -37
-3 -40 -7z"/>
<path d="M12307 1783 c-4 -3 -7 -156 -7 -340 l0 -333 40 0 40 0 0 340 0 340
-33 0 c-19 0 -37 -3 -40 -7z"/>
<path d="M12859 1783 c0 -5 0 -70 1 -145 1 -76 -1 -138 -5 -138 -4 0 -22 13
-41 30 -86 75 -234 43 -295 -63 -21 -36 -24 -55 -24 -132 0 -74 4 -97 23 -132
54 -102 198 -134 297 -67 44 30 45 30 45 -1 0 -22 4 -25 35 -25 l35 0 0 340 0
340 -35 0 c-19 0 -35 -3 -36 -7z m-55 -322 c52 -51 72 -151 42 -209 -28 -54
-62 -75 -124 -79 -67 -5 -111 17 -139 69 -25 47 -24 143 2 187 46 78 155 94
219 32z"/>
<path d="M13637 1783 c-4 -3 -7 -156 -7 -340 l0 -333 39 0 39 0 4 154 c3 137
5 158 24 183 47 64 133 78 183 28 31 -30 40 -84 41 -237 l0 -128 35 0 35 0 0
168 c0 191 -12 235 -72 272 -60 36 -167 22 -212 -29 -11 -11 -23 -21 -28 -21
-4 0 -8 65 -8 145 l0 145 -33 0 c-19 0 -37 -3 -40 -7z"/>
<path d="M16050 1450 l0 -340 38 0 37 0 1 149 c1 171 12 202 77 235 49 24 94
15 133 -25 l29 -30 3 -165 3 -164 35 0 34 0 0 170 c0 185 -6 216 -54 260 -21
19 -40 25 -90 28 -67 4 -105 -8 -140 -47 -26 -29 -38 -26 -36 7 1 15 2 80 1
145 l-1 117 -35 0 -35 0 0 -340z"/>
<path d="M18698 1693 c-1 -54 -1 -119 0 -145 3 -50 -6 -59 -29 -32 -7 8 -31
25 -53 36 -90 46 -215 3 -264 -92 -20 -39 -23 -57 -20 -137 3 -83 6 -95 33
-134 68 -95 203 -118 291 -48 l39 31 5 -29 c4 -23 11 -29 38 -31 l32 -3 0 340
0 341 -35 0 -35 0 -2 -97z m-90 -207 c59 -31 92 -92 92 -170 0 -81 -67 -146
-150 -146 -120 0 -187 132 -127 250 35 71 119 100 185 66z"/>
<path d="M6188 1749 c-23 -13 -23 -51 0 -72 24 -22 45 -21 65 1 43 48 -9 104
-65 71z"/>
<path d="M5540 1424 l0 -316 158 3 c153 4 160 5 217 34 111 56 161 159 153
310 -4 68 -9 91 -35 136 -64 115 -146 149 -355 149 l-138 0 0 -316z m326 219
c83 -44 124 -115 124 -218 0 -101 -34 -163 -114 -209 -52 -30 -242 -48 -257
-25 -11 17 -12 463 -1 473 4 5 52 6 107 4 77 -3 109 -9 141 -25z"/>
<path d="M9263 1693 c-9 -3 -13 -26 -13 -64 l0 -59 -45 0 c-45 0 -45 0 -45
-34 0 -34 1 -35 43 -38 l42 -3 5 -168 5 -169 28 -23 c55 -48 164 -43 178 8 l7
27 -56 0 c-88 0 -87 -3 -90 175 l-3 155 65 0 66 0 0 35 0 35 -65 0 -65 0 0 65
c0 61 -1 65 -22 64 -13 0 -29 -3 -35 -6z"/>
<path d="M13353 1693 c-9 -3 -13 -26 -13 -64 l0 -59 -45 0 c-45 0 -45 0 -45
-34 0 -34 1 -35 43 -38 l42 -3 5 -167 c5 -158 6 -168 29 -192 27 -29 86 -40
141 -28 30 7 35 12 38 39 l3 32 -54 -6 c-82 -8 -88 6 -85 183 l3 139 63 3 62
3 0 34 0 35 -65 0 -65 0 0 65 c0 61 -1 65 -22 64 -13 0 -29 -3 -35 -6z"/>
<path d="M6184 1556 c-3 -8 -4 -111 -2 -228 l3 -213 38 -3 38 -3 -1 216 c-1
120 -4 223 -7 231 -7 18 -62 18 -69 0z"/>
<path d="M6444 1556 c-49 -22 -74 -61 -74 -118 0 -64 26 -88 130 -123 43 -14
85 -34 94 -44 17 -19 21 -49 8 -67 -23 -35 -115 -45 -187 -19 -22 8 -41 15
-42 15 -2 0 -3 -18 -3 -39 0 -39 0 -39 50 -50 150 -32 254 14 266 117 9 70
-36 114 -154 152 -79 26 -92 35 -92 65 0 54 69 76 153 47 31 -10 59 -17 62
-14 3 3 5 20 5 38 0 30 -4 34 -37 43 -52 15 -142 13 -179 -3z"/>
<path d="M6895 1551 c-49 -22 -99 -77 -115 -126 -7 -21 -10 -69 -8 -110 3 -63
8 -80 34 -117 44 -63 103 -93 184 -92 38 0 81 7 103 17 34 15 37 19 37 55 l0
39 -47 -23 c-93 -48 -185 -20 -222 67 -24 54 -25 78 -11 131 14 48 57 91 107
106 39 12 77 6 146 -23 16 -7 18 -3 15 31 -3 35 -7 40 -38 51 -53 18 -139 15
-185 -6z"/>
<path d="M7325 1551 c-79 -36 -125 -113 -125 -211 0 -135 77 -224 204 -237 67
-7 150 27 188 78 70 94 66 242 -10 323 -60 64 -174 85 -257 47z m168 -68 c57
-29 89 -122 68 -199 -6 -22 -26 -55 -46 -74 -33 -32 -41 -35 -95 -35 -63 0
-96 20 -126 77 -22 42 -18 146 6 186 39 64 120 83 193 45z"/>
<path d="M7713 1563 c-13 -2 -23 -8 -23 -11 0 -4 38 -104 84 -222 l85 -215 42
0 c41 0 43 1 60 45 9 25 47 121 84 214 36 93 64 175 61 183 -8 19 -66 13 -77
-7 -15 -27 -109 -300 -109 -316 0 -44 -29 7 -82 146 -32 85 -62 162 -67 170
-9 16 -24 20 -58 13z"/>
<path d="M8285 1557 c-72 -33 -115 -102 -123 -194 -13 -171 95 -278 263 -260
71 7 111 29 118 64 3 15 3 31 1 34 -2 4 -28 -2 -56 -13 -118 -45 -244 9 -251
107 l-2 30 145 -3 c80 -1 156 0 169 3 22 6 23 9 17 57 -16 115 -82 180 -190
185 -37 2 -73 -2 -91 -10z m128 -61 c44 -18 69 -49 70 -88 l2 -33 -125 0 -125
0 3 24 c5 51 71 109 125 111 10 0 32 -6 50 -14z"/>
<path d="M8670 1340 l0 -230 40 0 40 0 0 144 c0 80 4 156 10 170 13 35 66 66
113 66 37 0 37 0 37 40 l0 40 -40 0 c-46 0 -94 -21 -103 -45 -11 -28 -37 -17
-37 15 0 27 -3 30 -30 30 l-30 0 0 -230z"/>
<path d="M10163 1551 c-152 -71 -159 -347 -11 -422 60 -31 150 -36 213 -12 47
17 50 21 53 56 l3 38 -32 -17 c-50 -25 -146 -29 -188 -7 -45 24 -72 62 -74
104 l-2 34 158 -1 157 0 0 50 c0 67 -32 130 -82 164 -53 35 -136 41 -195 13z
m144 -58 c41 -19 79 -88 61 -110 -16 -20 -237 -18 -244 2 -10 24 29 87 66 107
43 22 72 23 117 1z"/>
<path d="M10734 1564 c-7 -3 15 -82 61 -217 39 -117 75 -218 79 -225 4 -7 24
-12 45 -12 l37 0 51 157 c46 142 73 196 73 147 0 -9 21 -81 47 -160 l46 -144
42 0 42 0 27 93 c14 50 44 148 66 217 22 69 40 131 40 138 0 13 -48 16 -66 4
-10 -6 -59 -164 -94 -299 -13 -51 -26 -55 -35 -10 -14 69 -99 309 -112 314 -8
3 -24 1 -37 -5 -21 -9 -41 -66 -114 -311 -12 -43 -28 -33 -41 24 -7 30 -29
108 -50 172 -36 114 -38 118 -66 120 -17 1 -35 0 -41 -3z"/>
<path d="M11575 1552 c-81 -39 -125 -112 -125 -209 0 -80 14 -122 55 -170 64
-75 171 -93 266 -45 86 43 126 124 116 234 -6 73 -40 134 -95 172 -56 40 -154
47 -217 18z m151 -63 c72 -35 105 -112 84 -198 -37 -153 -233 -163 -278 -14
-17 58 -15 93 11 143 16 33 34 51 67 68 54 27 63 27 116 1z"/>
<path d="M12003 1563 c-10 -3 -13 -59 -13 -229 l0 -224 40 0 40 0 0 146 c0
117 3 151 16 174 22 37 64 60 108 60 35 0 36 1 36 40 l0 40 -45 0 c-38 0 -51
-6 -85 -36 -30 -28 -41 -33 -45 -22 -3 8 -5 19 -4 24 6 31 -13 42 -48 27z"/>
<path d="M14168 1563 c-17 -4 -18 -24 -18 -229 l0 -224 40 0 40 0 0 135 c0
155 11 193 62 225 18 11 50 20 71 20 37 0 37 0 37 40 l0 40 -43 0 c-45 0 -79
-18 -112 -59 l-20 -26 -5 40 c-5 40 -16 48 -52 38z"/>
<path d="M14573 1554 c-46 -23 -100 -86 -112 -131 -18 -65 -13 -143 13 -199
77 -165 310 -164 387 1 29 62 26 172 -6 235 -35 69 -105 110 -190 110 -35 0
-74 -7 -92 -16z m159 -65 c38 -20 71 -79 76 -133 8 -104 -54 -186 -142 -186
-127 0 -191 175 -104 286 40 50 112 64 170 33z"/>
<path d="M15308 1423 c-4 -165 -14 -199 -71 -233 -48 -30 -100 -26 -139 9
l-33 29 -3 166 -4 166 -34 0 -34 0 0 -177 c0 -161 2 -181 20 -211 24 -38 89
-72 140 -72 42 0 118 33 126 55 11 27 34 17 34 -15 0 -28 3 -30 35 -30 l35 0
-2 228 -3 227 -32 3 -31 3 -4 -148z"/>
<path d="M15605 1556 c-16 -7 -45 -28 -62 -46 -101 -104 -76 -302 46 -367 74
-39 178 -27 225 26 30 34 38 26 31 -31 -14 -105 -45 -139 -135 -152 -44 -6
-127 4 -162 19 -15 6 -18 2 -18 -29 0 -48 26 -59 150 -60 80 -1 101 2 137 21
91 49 103 93 103 389 l0 232 -25 6 c-36 9 -47 -1 -40 -35 7 -32 -5 -38 -26
-13 -40 49 -157 70 -224 40z m175 -75 c45 -32 70 -80 70 -133 0 -100 -53 -158
-145 -158 -67 0 -111 27 -137 86 -63 143 91 292 212 205z"/>
<path d="M16764 1564 c-6 -3 14 -76 53 -192 94 -278 84 -256 131 -260 l41 -3
45 141 c25 78 46 151 46 162 0 52 27 -2 74 -145 l50 -158 45 3 c44 3 44 3 58
53 14 49 110 354 119 380 7 18 -56 29 -72 13 -10 -12 -77 -235 -90 -305 -4
-18 -10 -33 -13 -33 -4 0 -31 73 -61 163 -29 89 -58 168 -63 175 -17 21 -60
10 -75 -20 -6 -14 -31 -92 -54 -172 -23 -80 -44 -146 -48 -146 -4 0 -14 24
-23 53 -52 176 -88 281 -99 289 -14 8 -46 9 -64 2z"/>
<path d="M17637 1560 c-80 -24 -147 -122 -147 -215 0 -168 134 -277 287 -235
60 17 127 81 142 135 36 133 -11 260 -114 306 -42 19 -120 23 -168 9z m148
-79 c68 -39 94 -164 50 -241 -40 -67 -132 -90 -196 -47 -52 34 -71 79 -67 159
3 61 7 71 38 103 55 56 109 64 175 26z"/>
<path d="M18045 1563 c-6 -5 -9 -90 -7 -230 l3 -223 34 0 35 0 0 133 c0 108 4
140 19 174 21 46 62 73 110 73 24 0 32 5 37 25 10 40 -1 55 -41 55 -39 0 -83
-19 -104 -44 -19 -23 -29 -20 -33 12 -3 27 -32 41 -53 25z"/>
<path d="M18950 1552 c-37 -20 -70 -72 -70 -109 0 -60 42 -102 125 -124 55
-15 111 -45 118 -63 26 -67 -83 -108 -187 -71 -48 17 -56 13 -56 -26 0 -35 25
-48 110 -56 108 -10 191 35 205 110 14 71 -20 124 -93 148 -143 46 -161 59
-141 103 22 47 73 56 156 28 l51 -18 4 28 c8 50 -10 61 -103 65 -69 4 -90 1
-119 -15z"/>
</g>
</svg>
